<svg width="24" height="24" viewBox="0 0 24 24" fill="none" xmlns="http://www.w3.org/2000/svg">
<path d="M21.1782 15.3L21.2063 15.2062C21.9315 13.1303 21.9315 10.8697 21.2063 8.79375L21.1782 8.7C20.494 6.81373 19.2465 5.18333 17.6049 4.02963C15.9632 2.87593 14.0066 2.25467 12.0001 2.25C9.99289 2.25197 8.03506 2.87218 6.39286 4.02624C4.75066 5.18031 3.50382 6.81222 2.82193 8.7L2.7938 8.79375C2.06857 10.8697 2.06857 13.1303 2.7938 15.2062L2.82193 15.3C3.50382 17.1878 4.75066 18.8197 6.39286 19.9738C8.03506 21.1278 9.99289 21.748 12.0001 21.75C14.0072 21.748 15.965 21.1278 17.6072 19.9738C19.2494 18.8197 20.4963 17.1878 21.1782 15.3ZM9.60943 15.75H14.3907C13.9103 17.2413 13.0922 18.6016 12.0001 19.725C10.9079 18.6016 10.0898 17.2413 9.60943 15.75V15.75ZM9.21568 14.25C8.92825 12.7638 8.92825 11.2362 9.21568 9.75H14.7844C14.9272 10.4915 14.9994 11.2449 15.0001 12C14.9998 12.7551 14.9276 13.5086 14.7844 14.25H9.21568ZM3.75005 12C3.75164 11.2395 3.85571 10.4827 4.05943 9.75H7.68755C7.43755 11.2396 7.43755 12.7604 7.68755 14.25H4.05943C3.85571 13.5173 3.75164 12.7605 3.75005 12V12ZM14.3907 8.25H9.60943C10.0898 6.75871 10.9079 5.39841 12.0001 4.275C13.0922 5.39841 13.9103 6.75871 14.3907 8.25V8.25ZM16.3126 9.75H19.9407C20.3533 11.2216 20.3533 12.7784 19.9407 14.25H16.3126C16.5626 12.7604 16.5626 11.2396 16.3126 9.75V9.75ZM19.3501 8.25H15.9751C15.524 6.6706 14.7551 5.19994 13.7157 3.92813C14.9159 4.18728 16.0437 4.7093 17.018 5.45661C17.9923 6.20393 18.7887 7.15795 19.3501 8.25V8.25ZM10.2844 3.92813C9.24497 5.19994 8.47614 6.6706 8.02505 8.25H4.65005C5.21138 7.15795 6.00785 6.20393 6.98211 5.45661C7.95638 4.7093 9.08421 4.18728 10.2844 3.92813V3.92813ZM4.65005 15.75H8.02505C8.47614 17.3294 9.24497 18.8001 10.2844 20.0719C9.08347 19.8146 7.95482 19.2933 6.98029 18.5458C6.00576 17.7983 5.20978 16.8432 4.65005 15.75V15.75ZM13.7157 20.0719C14.7551 18.8001 15.524 17.3294 15.9751 15.75H19.3501C18.7903 16.8432 17.9943 17.7983 17.0198 18.5458C16.0453 19.2933 14.9166 19.8146 13.7157 20.0719V20.0719Z" fill="white"/>
</svg>
