<svg width="24" height="24" viewBox="0 0 24 24" fill="none" xmlns="http://www.w3.org/2000/svg">
<path d="M12 16.475C13.65 15.1417 14.896 13.8583 15.738 12.625C16.5793 11.3917 17 10.2333 17 9.15C17 8.21667 16.8293 7.42067 16.488 6.762C16.146 6.104 15.725 5.57067 15.225 5.162C14.725 4.754 14.1833 4.45833 13.6 4.275C13.0167 4.09167 12.4833 4 12 4C11.5167 4 10.9833 4.09167 10.4 4.275C9.81667 4.45833 9.275 4.754 8.775 5.162C8.275 5.57067 7.85433 6.104 7.513 6.762C7.171 7.42067 7 8.21667 7 9.15C7 10.2333 7.42067 11.3917 8.262 12.625C9.104 13.8583 10.35 15.1417 12 16.475ZM12 18.65C11.85 18.65 11.7083 18.629 11.575 18.587C11.4417 18.5457 11.3167 18.4833 11.2 18.4C9.11667 16.7833 7.56267 15.2083 6.538 13.675C5.51267 12.1417 5 10.6333 5 9.15C5 7.96667 5.21267 6.929 5.638 6.037C6.06267 5.14567 6.60833 4.4 7.275 3.8C7.94167 3.2 8.69167 2.75 9.525 2.45C10.3583 2.15 11.1833 2 12 2C12.8167 2 13.6417 2.15 14.475 2.45C15.3083 2.75 16.0583 3.2 16.725 3.8C17.3917 4.4 17.9377 5.14567 18.363 6.037C18.7877 6.929 19 7.96667 19 9.15C19 10.6333 18.4873 12.1417 17.462 13.675C16.4373 15.2083 14.8833 16.7833 12.8 18.4C12.7 18.4833 12.5793 18.5457 12.438 18.587C12.296 18.629 12.15 18.65 12 18.65V18.65ZM12 11C12.55 11 13.021 10.804 13.413 10.412C13.8043 10.0207 14 9.55 14 9C14 8.45 13.8043 7.979 13.413 7.587C13.021 7.19567 12.55 7 12 7C11.45 7 10.9793 7.19567 10.588 7.587C10.196 7.979 10 8.45 10 9C10 9.55 10.196 10.0207 10.588 10.412C10.9793 10.804 11.45 11 12 11ZM6 22C5.71667 22 5.479 21.904 5.287 21.712C5.09567 21.5207 5 21.2833 5 21C5 20.7167 5.09567 20.4793 5.287 20.288C5.479 20.096 5.71667 20 6 20H18C18.2833 20 18.5207 20.096 18.712 20.288C18.904 20.4793 19 20.7167 19 21C19 21.2833 18.904 21.5207 18.712 21.712C18.5207 21.904 18.2833 22 18 22H6Z" fill="white"/>
</svg>
